ply
format ascii 1.0
comment Created by Blender 2.76 (sub 0) - www.blender.org, source file: ''
element vertex 308
property float x
property float y
property float z
property float nx
property float ny
property float nz
element face 204
property list uchar uint vertex_indices
end_header
0.075000 0.037500 0.255000 0.998103 0.061561 0.000000
0.074716 0.042108 0.000000 0.998103 0.061561 0.000000
0.074716 0.042108 0.255000 0.998103 0.061561 0.000000
0.074716 0.042108 0.255000 0.982973 0.183749 -0.000000
0.074716 0.042108 0.000000 0.982973 0.183749 -0.000000
0.073867 0.046647 0.000000 0.982973 0.183749 -0.000000
0.073867 0.046647 0.255000 0.982973 0.183749 0.000000
0.073867 0.046647 0.255000 0.952942 0.303153 -0.000000
0.073867 0.046647 0.000000 0.952942 0.303153 -0.000000
0.072468 0.051047 0.000000 0.952942 0.303153 -0.000000
0.072468 0.051047 0.255000 0.952942 0.303153 0.000000
0.072468 0.051047 0.255000 0.908464 0.417962 -0.000000
0.072468 0.051047 0.000000 0.908464 0.417962 -0.000000
0.070538 0.055241 0.000000 0.908464 0.417962 -0.000000
0.070538 0.055241 0.255000 0.908464 0.417962 0.000000
0.070538 0.055241 0.255000 0.850218 0.526431 -0.000000
0.070538 0.055241 0.000000 0.850218 0.526431 -0.000000
0.068107 0.059167 0.000000 0.850218 0.526431 -0.000000
0.068107 0.059167 0.255000 0.850218 0.526431 0.000000
0.068107 0.059167 0.255000 0.779081 0.626923 -0.000000
0.068107 0.059167 0.000000 0.779081 0.626923 -0.000000
0.065213 0.062764 0.000000 0.779081 0.626923 -0.000000
0.065213 0.062764 0.255000 0.779081 0.626923 0.000000
0.065213 0.062764 0.255000 0.696135 0.717911 -0.000000
0.065213 0.062764 0.000000 0.696135 0.717911 -0.000000
0.061898 0.065978 0.000000 0.696135 0.717911 -0.000000
0.061898 0.065978 0.255000 0.696135 0.717911 0.000000
0.061898 0.065978 0.255000 0.602633 0.798018 -0.000000
0.061898 0.065978 0.000000 0.602633 0.798018 -0.000000
0.058214 0.068760 0.000000 0.602633 0.798018 -0.000000
0.058214 0.068760 0.255000 0.602633 0.798018 0.000000
0.058214 0.068760 0.255000 0.500001 0.866025 -0.000000
0.058214 0.068760 0.000000 0.500001 0.866025 -0.000000
0.054215 0.071069 0.000000 0.500001 0.866025 -0.000000
0.054215 0.071069 0.255000 0.500001 0.866025 0.000000
0.054215 0.071069 0.255000 0.389784 0.920906 -0.000000
0.054215 0.071069 0.000000 0.389784 0.920906 -0.000000
0.049963 0.072868 0.000000 0.389784 0.920906 -0.000000
0.049963 0.072868 0.255000 0.389784 0.920906 0.000000
0.049963 0.072868 0.255000 0.273664 0.961825 -0.000000
0.049963 0.072868 0.000000 0.273664 0.961825 -0.000000
0.045522 0.074132 0.000000 0.273664 0.961825 -0.000000
0.045522 0.074132 0.255000 0.273664 0.961825 0.000000
0.045522 0.074132 0.255000 0.153391 0.988166 -0.000000
0.045522 0.074132 0.000000 0.153391 0.988166 -0.000000
0.040960 0.074840 0.000000 0.153391 0.988166 -0.000000
0.040960 0.074840 0.255000 0.153391 0.988166 0.000000
0.040960 0.074840 0.255000 0.030794 0.999526 -0.000000
0.040960 0.074840 0.000000 0.030794 0.999526 -0.000000
0.036345 0.074982 0.000000 0.030794 0.999526 -0.000000
0.036345 0.074982 0.255000 0.030794 0.999526 0.000000
0.036345 0.074982 0.255000 -0.092268 0.995734 0.000000
0.036345 0.074982 0.000000 -0.092268 0.995734 0.000000
0.031748 0.074556 0.000000 -0.092268 0.995734 0.000000
0.031748 0.074556 0.255000 -0.092268 0.995734 0.000000
0.031748 0.074556 0.255000 -0.213932 0.976849 0.000000
0.031748 0.074556 0.000000 -0.213932 0.976849 0.000000
0.027238 0.073568 0.000000 -0.213932 0.976849 0.000000
0.027238 0.073568 0.255000 -0.213932 0.976849 0.000000
0.027238 0.073568 0.255000 -0.332355 0.943154 0.000000
0.027238 0.073568 0.000000 -0.332355 0.943154 0.000000
0.022883 0.072034 0.000000 -0.332355 0.943154 0.000000
0.022883 0.072034 0.255000 -0.332355 0.943154 0.000000
0.022883 0.072034 0.255000 -0.445738 0.895164 0.000000
0.022883 0.072034 0.000000 -0.445738 0.895164 0.000000
0.018750 0.069976 0.000000 -0.445738 0.895164 0.000000
0.018750 0.069976 0.255000 -0.445738 0.895164 0.000000
0.018750 0.069976 0.255000 -0.552364 0.833603 0.000000
0.018750 0.069976 0.000000 -0.552364 0.833603 0.000000
0.014901 0.067426 0.000000 -0.552364 0.833603 0.000000
0.014901 0.067426 0.255000 -0.552364 0.833603 0.000000
0.014901 0.067426 0.255000 -0.650620 0.759404 0.000000
0.014901 0.067426 0.000000 -0.650620 0.759404 0.000000
0.011395 0.064422 0.000000 -0.650620 0.759404 0.000000
0.011395 0.064422 0.255000 -0.650620 0.759404 0.000000
0.011395 0.064422 0.255000 -0.739008 0.673696 0.000000
0.011395 0.064422 0.000000 -0.739008 0.673696 0.000000
0.008284 0.061010 0.000000 -0.739008 0.673696 0.000000
0.008284 0.061010 0.255000 -0.739008 0.673696 0.000000
0.008284 0.061010 0.255000 -0.816197 0.577773 0.000000
0.008284 0.061010 0.000000 -0.816197 0.577773 0.000000
0.005617 0.057241 0.000000 -0.816197 0.577773 0.000000
0.005617 0.057241 0.255000 -0.816197 0.577773 0.000000
0.005617 0.057241 0.255000 -0.881012 0.473093 0.000000
0.005617 0.057241 0.000000 -0.881012 0.473093 0.000000
0.003433 0.053174 0.000000 -0.881012 0.473093 0.000000
0.003433 0.053174 0.255000 -0.881012 0.473093 0.000000
0.003433 0.053174 0.255000 -0.932472 0.361242 0.000000
0.003433 0.053174 0.000000 -0.932472 0.361242 0.000000
0.001765 0.048868 0.000000 -0.932472 0.361242 0.000000
0.001765 0.048868 0.255000 -0.932472 0.361242 0.000000
0.001765 0.048868 0.255000 -0.969797 0.243914 0.000000
0.001765 0.048868 0.000000 -0.969797 0.243914 0.000000
0.000639 0.044391 0.000000 -0.969797 0.243914 0.000000
0.000639 0.044391 0.255000 -0.969797 0.243914 0.000000
0.000639 0.044391 0.255000 -0.992421 0.122888 0.000000
0.000639 0.044391 0.000000 -0.992421 0.122888 0.000000
0.000071 0.039809 0.000000 -0.992421 0.122888 0.000000
0.000071 0.039809 0.255000 -0.992421 0.122888 0.000000
0.000071 0.039809 0.255000 -1.000000 0.000000 0.000000
0.000071 0.039809 0.000000 -1.000000 0.000000 0.000000
0.000071 0.035191 0.000000 -1.000000 0.000000 0.000000
0.000071 0.035191 0.255000 -1.000000 0.000000 0.000000
0.000071 0.035191 0.255000 -0.992421 -0.122888 0.000000
0.000071 0.035191 0.000000 -0.992421 -0.122888 0.000000
0.000639 0.030609 0.000000 -0.992421 -0.122888 0.000000
0.000639 0.030609 0.255000 -0.992421 -0.122888 -0.000000
0.000639 0.030609 0.255000 -0.969797 -0.243914 0.000000
0.000639 0.030609 0.000000 -0.969797 -0.243914 0.000000
0.001765 0.026132 0.000000 -0.969797 -0.243914 0.000000
0.001765 0.026132 0.255000 -0.969797 -0.243914 -0.000000
0.001765 0.026132 0.255000 -0.932472 -0.361241 0.000000
0.001765 0.026132 0.000000 -0.932472 -0.361241 0.000000
0.003433 0.021826 0.000000 -0.932472 -0.361241 0.000000
0.003433 0.021826 0.255000 -0.932472 -0.361241 -0.000000
0.003433 0.021826 0.255000 -0.881012 -0.473094 0.000000
0.003433 0.021826 0.000000 -0.881012 -0.473094 0.000000
0.005617 0.017759 0.000000 -0.881012 -0.473094 0.000000
0.005617 0.017759 0.255000 -0.881012 -0.473094 -0.000000
0.005617 0.017759 0.255000 -0.816197 -0.577773 0.000000
0.005617 0.017759 0.000000 -0.816197 -0.577773 0.000000
0.008284 0.013990 0.000000 -0.816197 -0.577773 0.000000
0.008284 0.013990 0.255000 -0.816197 -0.577773 -0.000000
0.008284 0.013990 0.255000 -0.739009 -0.673695 0.000000
0.008284 0.013990 0.000000 -0.739009 -0.673695 0.000000
0.011395 0.010578 0.000000 -0.739009 -0.673695 0.000000
0.011395 0.010578 0.255000 -0.739009 -0.673695 -0.000000
0.011395 0.010578 0.255000 -0.650618 -0.759405 0.000000
0.011395 0.010578 0.000000 -0.650618 -0.759405 0.000000
0.014901 0.007574 0.000000 -0.650618 -0.759405 0.000000
0.014901 0.007574 0.255000 -0.650618 -0.759405 -0.000000
0.014901 0.007574 0.255000 -0.552365 -0.833603 0.000000
0.014901 0.007574 0.000000 -0.552365 -0.833603 0.000000
0.018750 0.005024 0.000000 -0.552365 -0.833603 0.000000
0.018750 0.005024 0.255000 -0.552365 -0.833603 -0.000000
0.018750 0.005024 0.255000 -0.445738 -0.895163 0.000000
0.018750 0.005024 0.000000 -0.445738 -0.895163 0.000000
0.022883 0.002966 0.000000 -0.445738 -0.895163 0.000000
0.022883 0.002966 0.255000 -0.445738 -0.895163 -0.000000
0.022883 0.002966 0.255000 -0.332355 -0.943154 0.000000
0.022883 0.002966 0.000000 -0.332355 -0.943154 0.000000
0.027238 0.001432 0.000000 -0.332355 -0.943154 0.000000
0.027238 0.001432 0.255000 -0.332355 -0.943154 -0.000000
0.027238 0.001432 0.255000 -0.213933 -0.976848 0.000000
0.027238 0.001432 0.000000 -0.213933 -0.976848 0.000000
0.031748 0.000444 0.000000 -0.213933 -0.976848 0.000000
0.031748 0.000444 0.255000 -0.213933 -0.976848 -0.000000
0.031748 0.000444 0.255000 -0.092268 -0.995734 0.000000
0.031748 0.000444 0.000000 -0.092268 -0.995734 0.000000
0.036345 0.000018 0.000000 -0.092268 -0.995734 0.000000
0.036345 0.000018 0.255000 -0.092268 -0.995734 -0.000000
0.036345 0.000018 0.255000 0.030795 -0.999526 0.000000
0.036345 0.000018 0.000000 0.030795 -0.999526 0.000000
0.040960 0.000160 0.000000 0.030795 -0.999526 0.000000
0.040960 0.000160 0.255000 0.030795 -0.999526 0.000000
0.040960 0.000160 0.255000 0.153392 -0.988165 0.000000
0.040960 0.000160 0.000000 0.153392 -0.988165 0.000000
0.045522 0.000868 0.000000 0.153392 -0.988165 0.000000
0.045522 0.000868 0.255000 0.153392 -0.988165 0.000000
0.045522 0.000868 0.255000 0.273663 -0.961826 0.000000
0.045522 0.000868 0.000000 0.273663 -0.961826 0.000000
0.049963 0.002132 0.000000 0.273663 -0.961826 0.000000
0.049963 0.002132 0.255000 0.273663 -0.961826 0.000000
0.049963 0.002132 0.255000 0.389786 -0.920906 0.000000
0.049963 0.002132 0.000000 0.389786 -0.920906 0.000000
0.054215 0.003931 0.000000 0.389786 -0.920906 0.000000
0.054215 0.003931 0.255000 0.389786 -0.920906 0.000000
0.054215 0.003931 0.255000 0.500000 -0.866025 0.000000
0.054215 0.003931 0.000000 0.500000 -0.866025 0.000000
0.058214 0.006240 0.000000 0.500000 -0.866025 0.000000
0.058214 0.006240 0.255000 0.500000 -0.866025 0.000000
0.058214 0.006240 0.255000 0.602634 -0.798017 0.000000
0.058214 0.006240 0.000000 0.602634 -0.798017 0.000000
0.061898 0.009022 0.000000 0.602634 -0.798017 0.000000
0.061898 0.009022 0.255000 0.602634 -0.798017 0.000000
0.061898 0.009022 0.255000 0.696133 -0.717912 0.000000
0.061898 0.009022 0.000000 0.696133 -0.717912 0.000000
0.065213 0.012236 0.000000 0.696133 -0.717912 0.000000
0.065213 0.012236 0.255000 0.696133 -0.717912 0.000000
0.065213 0.012236 0.255000 0.779082 -0.626923 0.000000
0.065213 0.012236 0.000000 0.779082 -0.626923 0.000000
0.068107 0.015833 0.000000 0.779082 -0.626923 0.000000
0.068107 0.015833 0.255000 0.779082 -0.626923 0.000000
0.068107 0.015833 0.255000 0.850218 -0.526431 0.000000
0.068107 0.015833 0.000000 0.850218 -0.526431 0.000000
0.070538 0.019759 0.000000 0.850218 -0.526431 0.000000
0.070538 0.019759 0.255000 0.850218 -0.526431 0.000000
0.070538 0.019759 0.255000 0.908465 -0.417962 0.000000
0.070538 0.019759 0.000000 0.908465 -0.417962 0.000000
0.072468 0.023953 0.000000 0.908465 -0.417962 0.000000
0.072468 0.023953 0.255000 0.908465 -0.417962 0.000000
0.072468 0.023953 0.255000 0.952942 -0.303153 0.000000
0.072468 0.023953 0.000000 0.952942 -0.303153 0.000000
0.073867 0.028353 0.000000 0.952942 -0.303153 0.000000
0.073867 0.028353 0.255000 0.952942 -0.303153 0.000000
0.073867 0.028353 0.255000 0.982973 -0.183749 0.000000
0.073867 0.028353 0.000000 0.982973 -0.183749 0.000000
0.074716 0.032892 0.000000 0.982973 -0.183749 0.000000
0.074716 0.032892 0.255000 0.982973 -0.183749 0.000000
0.074716 0.032892 0.255000 0.998103 -0.061561 0.000000
0.074716 0.032892 0.000000 0.998103 -0.061561 0.000000
0.075000 0.037500 0.000000 0.998103 -0.061561 0.000000
0.075000 0.037500 0.255000 0.998103 -0.061561 0.000000
0.075000 0.037500 0.000000 0.998103 0.061561 -0.000000
0.073867 0.046647 0.000000 0.000000 0.000000 -1.000000
0.074716 0.042108 0.000000 0.000000 0.000000 -1.000000
0.037500 0.037500 0.000000 0.000000 0.000000 -1.000000
0.075000 0.037500 0.000000 -0.000000 0.000000 -1.000000
0.074716 0.032892 0.000000 0.000000 0.000000 -1.000000
0.068107 0.059167 0.000000 0.000000 0.000000 -1.000000
0.070538 0.055241 0.000000 0.000000 0.000000 -1.000000
0.072468 0.051047 0.000000 -0.000000 0.000000 -1.000000
0.058214 0.068760 0.000000 0.000000 0.000000 -1.000000
0.061898 0.065978 0.000000 0.000000 0.000000 -1.000000
0.065213 0.062764 0.000000 -0.000000 0.000000 -1.000000
0.045522 0.074132 0.000000 0.000000 0.000000 -1.000000
0.049963 0.072868 0.000000 0.000000 0.000000 -1.000000
0.054215 0.071069 0.000000 -0.000000 0.000000 -1.000000
0.031748 0.074556 0.000000 -0.000000 0.000000 -1.000000
0.036345 0.074982 0.000000 -0.000000 0.000000 -1.000000
0.040960 0.074840 0.000000 -0.000000 -0.000000 -1.000000
0.018750 0.069976 0.000000 -0.000000 0.000000 -1.000000
0.022883 0.072034 0.000000 -0.000000 0.000000 -1.000000
0.027238 0.073568 0.000000 0.000000 -0.000000 -1.000000
0.008284 0.061010 0.000000 -0.000000 0.000000 -1.000000
0.011395 0.064422 0.000000 -0.000000 0.000000 -1.000000
0.014901 0.067426 0.000000 0.000000 -0.000000 -1.000000
0.001765 0.048868 0.000000 -0.000000 0.000000 -1.000000
0.003433 0.053174 0.000000 -0.000000 0.000000 -1.000000
0.005617 0.057241 0.000000 0.000000 -0.000000 -1.000000
0.000071 0.035191 0.000000 -0.000000 -0.000000 -1.000000
0.000071 0.039809 0.000000 -0.000000 -0.000000 -1.000000
0.000639 0.044391 0.000000 0.000000 -0.000000 -1.000000
0.003433 0.021826 0.000000 0.000000 -0.000000 -1.000000
0.001765 0.026132 0.000000 0.000000 -0.000000 -1.000000
0.000639 0.030609 0.000000 0.000000 0.000000 -1.000000
0.011395 0.010578 0.000000 0.000000 -0.000000 -1.000000
0.008284 0.013990 0.000000 0.000000 -0.000000 -1.000000
0.005617 0.017759 0.000000 0.000000 0.000000 -1.000000
0.022883 0.002966 0.000000 0.000000 -0.000000 -1.000000
0.018750 0.005024 0.000000 0.000000 -0.000000 -1.000000
0.014901 0.007574 0.000000 0.000000 0.000000 -1.000000
0.036345 0.000018 0.000000 0.000000 -0.000000 -1.000000
0.031748 0.000444 0.000000 0.000000 -0.000000 -1.000000
0.027238 0.001432 0.000000 0.000000 0.000000 -1.000000
0.049963 0.002132 0.000000 0.000000 0.000000 -1.000000
0.045522 0.000868 0.000000 0.000000 0.000000 -1.000000
0.040960 0.000160 0.000000 0.000000 0.000000 -1.000000
0.061898 0.009022 0.000000 0.000000 0.000000 -1.000000
0.058214 0.006240 0.000000 0.000000 0.000000 -1.000000
0.054215 0.003931 0.000000 0.000000 0.000000 -1.000000
0.070538 0.019759 0.000000 0.000000 0.000000 -1.000000
0.068107 0.015833 0.000000 0.000000 0.000000 -1.000000
0.065213 0.012236 0.000000 0.000000 0.000000 -1.000000
0.073867 0.028353 0.000000 0.000000 0.000000 -1.000000
0.072468 0.023953 0.000000 0.000000 0.000000 -1.000000
0.073867 0.028353 0.255000 0.000000 0.000000 1.000000
0.074716 0.032892 0.255000 0.000000 0.000000 1.000000
0.037500 0.037500 0.255000 0.000000 0.000000 1.000000
0.075000 0.037500 0.255000 0.000000 0.000000 1.000000
0.074716 0.042108 0.255000 0.000000 0.000000 1.000000
0.068107 0.015833 0.255000 0.000000 0.000000 1.000000
0.070538 0.019759 0.255000 0.000000 0.000000 1.000000
0.072468 0.023953 0.255000 0.000000 0.000000 1.000000
0.058214 0.006240 0.255000 0.000000 0.000000 1.000000
0.061898 0.009022 0.255000 0.000000 0.000000 1.000000
0.065213 0.012236 0.255000 0.000000 0.000000 1.000000
0.045522 0.000868 0.255000 0.000000 0.000000 1.000000
0.049963 0.002132 0.255000 0.000000 0.000000 1.000000
0.054215 0.003931 0.255000 0.000000 0.000000 1.000000
0.031748 0.000444 0.255000 0.000000 0.000000 1.000000
0.036345 0.000018 0.255000 0.000000 0.000000 1.000000
0.040960 0.000160 0.255000 0.000000 -0.000000 1.000000
0.018750 0.005024 0.255000 0.000000 0.000000 1.000000
0.022883 0.002966 0.255000 0.000000 0.000000 1.000000
0.027238 0.001432 0.255000 0.000000 -0.000000 1.000000
0.008284 0.013990 0.255000 0.000000 0.000000 1.000000
0.011395 0.010578 0.255000 0.000000 0.000000 1.000000
0.014901 0.007574 0.255000 0.000000 -0.000000 1.000000
0.001765 0.026132 0.255000 0.000000 0.000000 1.000000
0.003433 0.021826 0.255000 0.000000 0.000000 1.000000
0.005617 0.017759 0.255000 0.000000 -0.000000 1.000000
0.000071 0.039809 0.255000 0.000000 -0.000000 1.000000
0.000071 0.035191 0.255000 0.000000 -0.000000 1.000000
0.000639 0.030609 0.255000 0.000000 -0.000000 1.000000
0.003433 0.053174 0.255000 0.000000 -0.000000 1.000000
0.001765 0.048868 0.255000 0.000000 -0.000000 1.000000
0.000639 0.044391 0.255000 -0.000000 0.000000 1.000000
0.011395 0.064422 0.255000 0.000000 -0.000000 1.000000
0.008284 0.061010 0.255000 0.000000 -0.000000 1.000000
0.005617 0.057241 0.255000 -0.000000 0.000000 1.000000
0.022883 0.072034 0.255000 0.000000 -0.000000 1.000000
0.018750 0.069976 0.255000 0.000000 -0.000000 1.000000
0.014901 0.067426 0.255000 -0.000000 0.000000 1.000000
0.036345 0.074982 0.255000 0.000000 -0.000000 1.000000
0.031748 0.074556 0.255000 0.000000 -0.000000 1.000000
0.027238 0.073568 0.255000 -0.000000 0.000000 1.000000
0.049963 0.072868 0.255000 -0.000000 0.000000 1.000000
0.045522 0.074132 0.255000 -0.000000 0.000000 1.000000
0.040960 0.074840 0.255000 0.000000 0.000000 1.000000
0.061898 0.065978 0.255000 -0.000000 0.000000 1.000000
0.058214 0.068760 0.255000 -0.000000 0.000000 1.000000
0.054215 0.071069 0.255000 0.000000 0.000000 1.000000
0.070538 0.055241 0.255000 -0.000000 0.000000 1.000000
0.068107 0.059167 0.255000 -0.000000 0.000000 1.000000
0.065213 0.062764 0.255000 0.000000 0.000000 1.000000
0.073867 0.046647 0.255000 -0.000000 0.000000 1.000000
0.072468 0.051047 0.255000 0.000000 0.000000 1.000000
3 0 1 2
3 3 4 5
3 3 5 6
3 7 8 9
3 7 9 10
3 11 12 13
3 11 13 14
3 15 16 17
3 15 17 18
3 19 20 21
3 19 21 22
3 23 24 25
3 23 25 26
3 27 28 29
3 27 29 30
3 31 32 33
3 31 33 34
3 35 36 37
3 35 37 38
3 39 40 41
3 39 41 42
3 43 44 45
3 43 45 46
3 47 48 49
3 47 49 50
3 51 52 53
3 51 53 54
3 55 56 57
3 55 57 58
3 59 60 61
3 59 61 62
3 63 64 65
3 63 65 66
3 67 68 69
3 67 69 70
3 71 72 73
3 71 73 74
3 75 76 77
3 75 77 78
3 79 80 81
3 79 81 82
3 83 84 85
3 83 85 86
3 87 88 89
3 87 89 90
3 91 92 93
3 91 93 94
3 95 96 97
3 95 97 98
3 99 100 101
3 99 101 102
3 103 104 105
3 103 105 106
3 107 108 109
3 107 109 110
3 111 112 113
3 111 113 114
3 115 116 117
3 115 117 118
3 119 120 121
3 119 121 122
3 123 124 125
3 123 125 126
3 127 128 129
3 127 129 130
3 131 132 133
3 131 133 134
3 135 136 137
3 135 137 138
3 139 140 141
3 139 141 142
3 143 144 145
3 143 145 146
3 147 148 149
3 147 149 150
3 151 152 153
3 151 153 154
3 155 156 157
3 155 157 158
3 159 160 161
3 159 161 162
3 163 164 165
3 163 165 166
3 167 168 169
3 167 169 170
3 171 172 173
3 171 173 174
3 175 176 177
3 175 177 178
3 179 180 181
3 179 181 182
3 183 184 185
3 183 185 186
3 187 188 189
3 187 189 190
3 191 192 193
3 191 193 194
3 195 196 197
3 195 197 198
3 199 200 201
3 199 201 202
3 0 203 1
3 204 205 206
3 206 205 207
3 206 207 208
3 209 210 206
3 206 210 211
3 206 211 204
3 212 213 206
3 206 213 214
3 206 214 209
3 215 216 206
3 206 216 217
3 206 217 212
3 218 219 206
3 206 219 220
3 206 220 215
3 221 222 206
3 206 222 223
3 206 223 218
3 224 225 206
3 206 225 226
3 206 226 221
3 227 228 206
3 206 228 229
3 206 229 224
3 230 231 206
3 206 231 232
3 206 232 227
3 233 234 206
3 206 234 235
3 206 235 230
3 236 237 206
3 206 237 238
3 206 238 233
3 239 240 206
3 206 240 241
3 206 241 236
3 242 243 206
3 206 243 244
3 206 244 239
3 245 246 206
3 206 246 247
3 206 247 242
3 248 249 206
3 206 249 250
3 206 250 245
3 251 252 206
3 206 252 253
3 206 253 248
3 208 254 206
3 206 254 255
3 206 255 251
3 256 257 258
3 258 257 259
3 258 259 260
3 261 262 258
3 258 262 263
3 258 263 256
3 264 265 258
3 258 265 266
3 258 266 261
3 267 268 258
3 258 268 269
3 258 269 264
3 270 271 258
3 258 271 272
3 258 272 267
3 273 274 258
3 258 274 275
3 258 275 270
3 276 277 258
3 258 277 278
3 258 278 273
3 279 280 258
3 258 280 281
3 258 281 276
3 282 283 258
3 258 283 284
3 258 284 279
3 285 286 258
3 258 286 287
3 258 287 282
3 288 289 258
3 258 289 290
3 258 290 285
3 291 292 258
3 258 292 293
3 258 293 288
3 294 295 258
3 258 295 296
3 258 296 291
3 297 298 258
3 258 298 299
3 258 299 294
3 300 301 258
3 258 301 302
3 258 302 297
3 303 304 258
3 258 304 305
3 258 305 300
3 260 306 258
3 258 306 307
3 258 307 303
