ply
format ascii 1.0
comment VCGLIB generated
element vertex 127
property float x
property float y
property float z
element face 248
property list uchar int vertex_indices
end_header
0.0312237 0.0765538 0.04 
0.0329477 0.0752432 0.04 
0.0395324 0.0642994 0.04 
0.02 0.08 0.04 
0.0210828 0.0799707 0.04 
0.04 0.08 0.04 
0.0253506 0.079271 0.04 
0.0274028 0.0785795 0.04 
0.0189172 0.0799707 0.04 
1.38778e-17 0.08 0.04 
0.00407814 0.0721035 0.04 
0.000467589 0.0642994 0.04 
0.00184849 0.0683978 0.04 
0.0106318 0.0776702 0.04 
0.0125972 0.0785795 0.04 
0.0167644 0.0797365 0.04 
1.38778e-17 0.06 0.04 
0.000467589 0.0557006 0.04 
0.04 0 0.04 
0.04 0.06 0.04 
0.0345199 0.046246 0.04 
0.0312237 0.0434462 0.04 
0.0253506 0.040729 0.04 
0.0210828 0.0400293 0.04 
0.0106318 0.0423298 0.04 
1.38778e-17 0 0.04 
0.00705227 0.0447568 0.04 
0.00548009 0.046246 0.04 
0.00286286 0.0496889 0.04 
0.04 0 0 
0.04 0.08 0 
0 0.08 0 
0 0 0 
0.0189172 0.0799707 0.07 
0.0167644 0.0797365 0.07 
0.0146494 0.079271 0.04 
0.0125972 0.0785795 0.07 
0.0106318 0.0776702 0.07 
0.00877626 0.0765538 0.04 
0.00877626 0.0765538 0.07 
0.00705227 0.0752432 0.04 
0.00548009 0.073754 0.04 
0.00548009 0.073754 0.07 
0.00286286 0.0703111 0.04 
0.00407814 0.0721035 0.07 
0.00286286 0.0703111 0.07 
0.00184849 0.0683978 0.07 
0.00104694 0.066386 0.04 
0.00104694 0.066386 0.07 
0.000117241 0.0621624 0.04 
0.000117241 0.0621624 0.07 
0 0.06 0.04 
0.000117241 0.0578376 0.04 
0.00104694 0.053614 0.04 
0.00104694 0.053614 0.07 
0.00184849 0.0516022 0.04 
0.00286286 0.0496889 0.07 
0.00407814 0.0478965 0.04 
0.00877626 0.0434462 0.04 
0.00877626 0.0434462 0.07 
0.0125972 0.0414205 0.04 
0.0146494 0.040729 0.04 
0.0146494 0.040729 0.07 
0.0167644 0.0402635 0.04 
0.0189172 0.0400293 0.04 
0.0210828 0.0400293 0.07 
0.0232356 0.0402635 0.04 
0.0253506 0.040729 0.07 
0.0274028 0.0414205 0.04 
0.0274028 0.0414205 0.07 
0.0293682 0.0423298 0.04 
0.0329477 0.0447568 0.04 
0.0329477 0.0447568 0.07 
0.0345199 0.046246 0.07 
0.0359219 0.0478965 0.04 
0.0371371 0.0496889 0.04 
0.0381515 0.0516022 0.04 
0.0381515 0.0516022 0.07 
0.0389531 0.053614 0.04 
0.0395324 0.0557006 0.04 
0.0395324 0.0557006 0.07 
0.0398828 0.0578376 0.04 
0.0398828 0.0621624 0.04 
0.0395324 0.0642994 0.07 
0.0389531 0.066386 0.04 
0.0389531 0.066386 0.07 
0.0381515 0.0683978 0.04 
0.0371371 0.0703111 0.04 
0.0359219 0.0721035 0.04 
0.0345199 0.073754 0.04 
0.0359219 0.0721035 0.07 
0.0329477 0.0752432 0.07 
0.0293682 0.0776702 0.04 
0.0312237 0.0765538 0.07 
0.0293682 0.0776702 0.07 
0.0232356 0.0797365 0.04 
0.0398828 0.0621624 0.07 
0.0389531 0.053614 0.07 
0.0398828 0.0578376 0.07 
0.04 0.06 0.07 
0.0359219 0.0478965 0.07 
0.0371371 0.0496889 0.07 
0.02 0.06 0.07 
0.0293682 0.0423298 0.07 
0.0312237 0.0434462 0.07 
0.0189172 0.0400293 0.07 
0.0232356 0.0402635 0.07 
0.0167644 0.0402635 0.07 
0.00705227 0.0447568 0.07 
0.0106318 0.0423298 0.07 
0.0125972 0.0414205 0.07 
0.00407814 0.0478965 0.07 
0.00548009 0.046246 0.07 
0.00184849 0.0516022 0.07 
0 0.06 0.07 
0.000117241 0.0578376 0.07 
0.000467589 0.0557006 0.07 
0.000467589 0.0642994 0.07 
0.00705227 0.0752432 0.07 
0.0146494 0.079271 0.07 
0.0210828 0.0799707 0.07 
0.0274028 0.0785795 0.07 
0.0253506 0.079271 0.07 
0.0232356 0.0797365 0.07 
0.0381515 0.0683978 0.07 
0.0371371 0.0703111 0.07 
0.0345199 0.073754 0.07 
3 0 1 5 
3 19 5 82 
3 82 5 2 
3 3 4 5 
3 5 4 95 
3 5 95 6 
3 1 89 5 
3 5 89 88 
3 5 88 87 
3 6 7 5 
3 5 7 92 
3 5 92 0 
3 87 86 5 
3 5 86 84 
3 5 84 2 
3 3 9 8 
3 8 9 15 
3 16 49 9 
3 9 49 11 
3 40 38 9 
3 9 38 13 
3 43 10 9 
3 9 10 41 
3 9 41 40 
3 11 47 9 
3 9 47 12 
3 9 12 43 
3 13 14 9 
3 9 14 35 
3 9 35 15 
3 9 31 16 
3 16 31 32 
3 16 32 25 
3 52 16 25 
3 52 25 17 
3 78 76 18 
3 18 76 75 
3 18 75 74 
3 19 81 18 
3 18 81 79 
3 18 79 78 
3 74 20 18 
3 18 20 71 
3 18 71 21 
3 21 70 18 
3 18 70 68 
3 18 68 22 
3 22 66 18 
3 18 66 23 
3 18 23 25 
3 25 23 64 
3 64 63 25 
3 25 63 61 
3 25 61 60 
3 60 24 25 
3 25 24 58 
3 25 58 26 
3 28 55 25 
3 25 55 53 
3 25 53 17 
3 26 27 25 
3 25 27 57 
3 25 57 28 
3 18 29 19 
3 19 29 30 
3 19 30 5 
3 31 30 32 
3 32 30 29 
3 5 30 3 
3 3 30 31 
3 3 31 9 
3 29 18 32 
3 32 18 25 
3 3 8 33 
3 33 8 15 
3 33 15 34 
3 34 15 35 
3 34 35 119 
3 119 35 14 
3 119 14 36 
3 36 14 13 
3 36 13 37 
3 37 13 38 
3 37 38 39 
3 39 38 40 
3 39 40 118 
3 118 40 41 
3 118 41 42 
3 42 41 10 
3 42 10 44 
3 44 10 43 
3 44 43 45 
3 45 43 12 
3 45 12 46 
3 46 12 47 
3 46 47 48 
3 48 47 11 
3 48 11 117 
3 117 11 49 
3 117 49 50 
3 50 49 51 
3 50 51 114 
3 114 51 52 
3 114 52 115 
3 115 52 17 
3 115 17 116 
3 116 17 53 
3 116 53 54 
3 54 53 55 
3 54 55 113 
3 113 55 28 
3 113 28 56 
3 56 28 57 
3 56 57 111 
3 111 57 27 
3 111 27 112 
3 112 27 26 
3 112 26 108 
3 108 26 58 
3 108 58 59 
3 59 58 24 
3 59 24 109 
3 109 24 60 
3 109 60 110 
3 110 60 61 
3 110 61 62 
3 62 61 63 
3 62 63 107 
3 107 63 64 
3 107 64 105 
3 105 64 23 
3 105 23 65 
3 65 23 66 
3 65 66 106 
3 106 66 22 
3 106 22 67 
3 67 22 68 
3 67 68 69 
3 69 68 70 
3 69 70 103 
3 103 70 21 
3 103 21 104 
3 104 21 71 
3 104 71 72 
3 72 71 20 
3 72 20 73 
3 73 20 74 
3 73 74 100 
3 100 74 75 
3 100 75 101 
3 101 75 76 
3 101 76 77 
3 77 76 78 
3 77 78 97 
3 97 78 79 
3 97 79 80 
3 80 79 81 
3 80 81 98 
3 98 81 19 
3 98 19 99 
3 99 19 82 
3 99 82 96 
3 96 82 2 
3 96 2 83 
3 83 2 84 
3 83 84 85 
3 85 84 86 
3 85 86 124 
3 124 86 87 
3 124 87 125 
3 125 87 88 
3 125 88 90 
3 90 88 89 
3 90 89 126 
3 126 89 1 
3 126 1 91 
3 91 1 0 
3 91 0 93 
3 93 0 92 
3 93 92 94 
3 94 92 7 
3 94 7 121 
3 121 7 6 
3 121 6 122 
3 122 6 95 
3 122 95 123 
3 123 95 4 
3 123 4 120 
3 120 4 3 
3 120 3 33 
3 99 96 102 
3 97 80 102 
3 102 80 98 
3 102 98 99 
3 100 101 102 
3 102 101 77 
3 102 77 97 
3 104 72 102 
3 102 72 73 
3 102 73 100 
3 67 69 102 
3 102 69 103 
3 102 103 104 
3 105 65 102 
3 102 65 106 
3 102 106 67 
3 110 62 102 
3 102 62 107 
3 102 107 105 
3 108 59 102 
3 102 59 109 
3 102 109 110 
3 56 111 102 
3 102 111 112 
3 102 112 108 
3 116 54 102 
3 102 54 113 
3 102 113 56 
3 50 114 102 
3 102 114 115 
3 102 115 116 
3 46 48 102 
3 102 48 117 
3 102 117 50 
3 42 44 102 
3 102 44 45 
3 102 45 46 
3 37 39 102 
3 102 39 118 
3 102 118 42 
3 34 119 102 
3 102 119 36 
3 102 36 37 
3 123 120 102 
3 102 120 33 
3 102 33 34 
3 94 121 102 
3 102 121 122 
3 102 122 123 
3 126 91 102 
3 102 91 93 
3 102 93 94 
3 124 125 102 
3 102 125 90 
3 102 90 126 
3 96 83 102 
3 102 83 85 
3 102 85 124 
