ply
format ascii 1.0
comment VCGLIB generated
element vertex 256
property float x
property float y
property float z
element face 364
property list uchar int vertex_indices
end_header
-0 -0 -0 
-0 -0 0.009792 
-0 0.011458 0.009792 
-0 0.011458 -0 
-0 -0 -0 
0.008958 -0 -0 
0.008958 -0 0.009792 
-0 -0 0.009792 
-0 -0 -0 
-0 0.011458 -0 
0.008958 0.011458 -0 
0.008958 -0 -0 
-0 0.021875 -0 
-0 0.021875 0.009792 
-0 0.032292 0.009792 
-0 0.032292 -0 
-0 0.021875 -0 
-0 0.032292 -0 
0.008958 0.032292 -0 
0.008958 0.021875 -0 
0.019375 -0 -0 
0.029792 -0 -0 
0.029792 -0 0.009792 
0.019375 -0 0.009792 
0.019375 -0 -0 
0.019375 0.011458 -0 
0.029792 0.011458 -0 
0.029792 -0 -0 
0.019375 0.021875 -0 
0.019375 0.032292 -0 
0.029792 0.032292 -0 
0.029792 0.021875 -0 
-0 -0 0.020208 
-0 -0 0.03 
-0 0.011458 0.03 
-0 0.011458 0.020208 
-0 -0 0.020208 
0.008958 -0 0.020208 
0.008958 -0 0.03 
-0 -0 0.03 
0.008958 -0 0.03 
0.008958 0.011458 0.03 
-0 0.011458 0.03 
-0 -0 0.03 
-0 0.021875 0.020208 
-0 0.021875 0.03 
-0 0.032292 0.03 
-0 0.032292 0.020208 
0.008958 0.021875 0.03 
0.008958 0.032292 0.03 
-0 0.032292 0.03 
-0 0.021875 0.03 
0.019375 -0 0.020208 
0.029792 -0 0.020208 
0.029792 -0 0.03 
0.019375 -0 0.03 
0.029792 -0 0.03 
0.029792 0.011458 0.03 
0.019375 0.011458 0.03 
0.019375 -0 0.03 
0.029792 0.021875 0.03 
0.029792 0.032292 0.03 
0.019375 0.032292 0.03 
0.019375 0.021875 0.03 
-0 0.042708 -0 
-0 0.042708 0.009792 
-0 0.053125 0.009792 
-0 0.053125 -0 
-0 0.042708 -0 
-0 0.053125 -0 
0.008958 0.053125 -0 
0.008958 0.042708 -0 
-0 0.063542 -0 
-0 0.063542 0.009792 
-0 0.075 0.009792 
-0 0.075 -0 
-0 0.075 0.009792 
0.008958 0.075 0.009792 
0.008958 0.075 -0 
-0 0.075 -0 
-0 0.063542 -0 
-0 0.075 -0 
0.008958 0.075 -0 
0.008958 0.063542 -0 
0.019375 0.042708 -0 
0.019375 0.053125 -0 
0.029792 0.053125 -0 
0.029792 0.042708 -0 
0.019375 0.075 0.009792 
0.029792 0.075 0.009792 
0.029792 0.075 -0 
0.019375 0.075 -0 
0.019375 0.063542 -0 
0.019375 0.075 -0 
0.029792 0.075 -0 
0.029792 0.063542 -0 
-0 0.042708 0.020208 
-0 0.042708 0.03 
-0 0.053125 0.03 
-0 0.053125 0.020208 
0.008958 0.042708 0.03 
0.008958 0.053125 0.03 
-0 0.053125 0.03 
-0 0.042708 0.03 
-0 0.063542 0.020208 
-0 0.063542 0.03 
-0 0.075 0.03 
-0 0.075 0.020208 
-0 0.075 0.03 
0.008958 0.075 0.03 
0.008958 0.075 0.020208 
-0 0.075 0.020208 
0.008958 0.063542 0.03 
0.008958 0.075 0.03 
-0 0.075 0.03 
-0 0.063542 0.03 
0.029792 0.042708 0.03 
0.029792 0.053125 0.03 
0.019375 0.053125 0.03 
0.019375 0.042708 0.03 
0.019375 0.075 0.03 
0.029792 0.075 0.03 
0.029792 0.075 0.020208 
0.019375 0.075 0.020208 
0.029792 0.063542 0.03 
0.029792 0.075 0.03 
0.019375 0.075 0.03 
0.019375 0.063542 0.03 
0.040208 -0 -0 
0.050625 -0 -0 
0.050625 -0 0.009792 
0.040208 -0 0.009792 
0.040208 -0 -0 
0.040208 0.011458 -0 
0.050625 0.011458 -0 
0.050625 -0 -0 
0.040208 0.021875 -0 
0.040208 0.032292 -0 
0.050625 0.032292 -0 
0.050625 0.021875 -0 
0.07 0.011458 -0 
0.07 0.011458 0.009792 
0.07 -0 0.009792 
0.07 -0 -0 
0.061042 -0 -0 
0.07 -0 -0 
0.07 -0 0.009792 
0.061042 -0 0.009792 
0.061042 -0 -0 
0.061042 0.011458 -0 
0.07 0.011458 -0 
0.07 -0 -0 
0.07 0.032292 -0 
0.07 0.032292 0.009792 
0.07 0.021875 0.009792 
0.07 0.021875 -0 
0.061042 0.021875 -0 
0.061042 0.032292 -0 
0.07 0.032292 -0 
0.07 0.021875 -0 
0.040208 -0 0.020208 
0.050625 -0 0.020208 
0.050625 -0 0.03 
0.040208 -0 0.03 
0.050625 -0 0.03 
0.050625 0.011458 0.03 
0.040208 0.011458 0.03 
0.040208 -0 0.03 
0.050625 0.021875 0.03 
0.050625 0.032292 0.03 
0.040208 0.032292 0.03 
0.040208 0.021875 0.03 
0.07 0.011458 0.020208 
0.07 0.011458 0.03 
0.07 -0 0.03 
0.07 -0 0.020208 
0.061042 -0 0.020208 
0.07 -0 0.020208 
0.07 -0 0.03 
0.061042 -0 0.03 
0.07 -0 0.03 
0.07 0.011458 0.03 
0.061042 0.011458 0.03 
0.061042 -0 0.03 
0.07 0.032292 0.020208 
0.07 0.032292 0.03 
0.07 0.021875 0.03 
0.07 0.021875 0.020208 
0.07 0.021875 0.03 
0.07 0.032292 0.03 
0.061042 0.032292 0.03 
0.061042 0.021875 0.03 
0.040208 0.042708 -0 
0.040208 0.053125 -0 
0.050625 0.053125 -0 
0.050625 0.042708 -0 
0.040208 0.075 0.009792 
0.050625 0.075 0.009792 
0.050625 0.075 -0 
0.040208 0.075 -0 
0.040208 0.063542 -0 
0.040208 0.075 -0 
0.050625 0.075 -0 
0.050625 0.063542 -0 
0.07 0.053125 -0 
0.07 0.053125 0.009792 
0.07 0.042708 0.009792 
0.07 0.042708 -0 
0.061042 0.042708 -0 
0.061042 0.053125 -0 
0.07 0.053125 -0 
0.07 0.042708 -0 
0.07 0.075 -0 
0.07 0.075 0.009792 
0.07 0.063542 0.009792 
0.07 0.063542 -0 
0.061042 0.075 0.009792 
0.07 0.075 0.009792 
0.07 0.075 -0 
0.061042 0.075 -0 
0.061042 0.063542 -0 
0.061042 0.075 -0 
0.07 0.075 -0 
0.07 0.063542 -0 
0.050625 0.042708 0.03 
0.050625 0.053125 0.03 
0.040208 0.053125 0.03 
0.040208 0.042708 0.03 
0.040208 0.075 0.03 
0.050625 0.075 0.03 
0.050625 0.075 0.020208 
0.040208 0.075 0.020208 
0.050625 0.063542 0.03 
0.050625 0.075 0.03 
0.040208 0.075 0.03 
0.040208 0.063542 0.03 
0.07 0.053125 0.020208 
0.07 0.053125 0.03 
0.07 0.042708 0.03 
0.07 0.042708 0.020208 
0.07 0.042708 0.03 
0.07 0.053125 0.03 
0.061042 0.053125 0.03 
0.061042 0.042708 0.03 
0.07 0.075 0.020208 
0.07 0.075 0.03 
0.07 0.063542 0.03 
0.07 0.063542 0.020208 
0.061042 0.075 0.03 
0.07 0.075 0.03 
0.07 0.075 0.020208 
0.061042 0.075 0.020208 
0.07 0.063542 0.03 
0.07 0.075 0.03 
0.061042 0.075 0.03 
0.061042 0.063542 0.03 
3 0 1 2 
3 0 2 3 
3 4 5 6 
3 4 6 7 
3 8 9 10 
3 8 10 11 
3 12 13 14 
3 12 14 15 
3 16 17 18 
3 16 18 19 
3 20 21 22 
3 20 22 23 
3 24 25 26 
3 24 26 27 
3 28 29 30 
3 28 30 31 
3 5 20 23 
3 5 23 6 
3 11 10 25 
3 11 25 24 
3 19 18 29 
3 19 29 28 
3 3 2 13 
3 3 13 12 
3 9 16 19 
3 9 19 10 
3 25 28 31 
3 25 31 26 
3 10 19 28 
3 10 28 25 
3 32 33 34 
3 32 34 35 
3 36 37 38 
3 36 38 39 
3 40 41 42 
3 40 42 43 
3 44 45 46 
3 44 46 47 
3 48 49 50 
3 48 50 51 
3 52 53 54 
3 52 54 55 
3 56 57 58 
3 56 58 59 
3 60 61 62 
3 60 62 63 
3 37 52 55 
3 37 55 38 
3 59 58 41 
3 59 41 40 
3 63 62 49 
3 63 49 48 
3 35 34 45 
3 35 45 44 
3 41 48 51 
3 41 51 42 
3 57 60 63 
3 57 63 58 
3 58 63 48 
3 58 48 41 
3 64 65 66 
3 64 66 67 
3 68 69 70 
3 68 70 71 
3 72 73 74 
3 72 74 75 
3 76 77 78 
3 76 78 79 
3 80 81 82 
3 80 82 83 
3 84 85 86 
3 84 86 87 
3 88 89 90 
3 88 90 91 
3 92 93 94 
3 92 94 95 
3 71 70 85 
3 71 85 84 
3 77 88 91 
3 77 91 78 
3 83 82 93 
3 83 93 92 
3 67 66 73 
3 67 73 72 
3 69 80 83 
3 69 83 70 
3 85 92 95 
3 85 95 86 
3 70 83 92 
3 70 92 85 
3 96 97 98 
3 96 98 99 
3 100 101 102 
3 100 102 103 
3 104 105 106 
3 104 106 107 
3 108 109 110 
3 108 110 111 
3 112 113 114 
3 112 114 115 
3 116 117 118 
3 116 118 119 
3 120 121 122 
3 120 122 123 
3 124 125 126 
3 124 126 127 
3 119 118 101 
3 119 101 100 
3 109 120 123 
3 109 123 110 
3 127 126 113 
3 127 113 112 
3 99 98 105 
3 99 105 104 
3 101 112 115 
3 101 115 102 
3 117 124 127 
3 117 127 118 
3 118 127 112 
3 118 112 101 
3 128 129 130 
3 128 130 131 
3 132 133 134 
3 132 134 135 
3 136 137 138 
3 136 138 139 
3 140 141 142 
3 140 142 143 
3 144 145 146 
3 144 146 147 
3 148 149 150 
3 148 150 151 
3 152 153 154 
3 152 154 155 
3 156 157 158 
3 156 158 159 
3 129 144 147 
3 129 147 130 
3 135 134 149 
3 135 149 148 
3 139 138 157 
3 139 157 156 
3 133 136 139 
3 133 139 134 
3 155 154 141 
3 155 141 140 
3 149 156 159 
3 149 159 150 
3 134 139 156 
3 134 156 149 
3 160 161 162 
3 160 162 163 
3 164 165 166 
3 164 166 167 
3 168 169 170 
3 168 170 171 
3 172 173 174 
3 172 174 175 
3 176 177 178 
3 176 178 179 
3 180 181 182 
3 180 182 183 
3 184 185 186 
3 184 186 187 
3 188 189 190 
3 188 190 191 
3 161 176 179 
3 161 179 162 
3 183 182 165 
3 183 165 164 
3 191 190 169 
3 191 169 168 
3 165 168 171 
3 165 171 166 
3 187 186 173 
3 187 173 172 
3 181 188 191 
3 181 191 182 
3 182 191 168 
3 182 168 165 
3 192 193 194 
3 192 194 195 
3 196 197 198 
3 196 198 199 
3 200 201 202 
3 200 202 203 
3 204 205 206 
3 204 206 207 
3 208 209 210 
3 208 210 211 
3 212 213 214 
3 212 214 215 
3 216 217 218 
3 216 218 219 
3 220 221 222 
3 220 222 223 
3 195 194 209 
3 195 209 208 
3 197 216 219 
3 197 219 198 
3 203 202 221 
3 203 221 220 
3 193 200 203 
3 193 203 194 
3 215 214 205 
3 215 205 204 
3 209 220 223 
3 209 223 210 
3 194 203 220 
3 194 220 209 
3 224 225 226 
3 224 226 227 
3 228 229 230 
3 228 230 231 
3 232 233 234 
3 232 234 235 
3 236 237 238 
3 236 238 239 
3 240 241 242 
3 240 242 243 
3 244 245 246 
3 244 246 247 
3 248 249 250 
3 248 250 251 
3 252 253 254 
3 252 254 255 
3 243 242 225 
3 243 225 224 
3 229 248 251 
3 229 251 230 
3 255 254 233 
3 255 233 232 
3 225 232 235 
3 225 235 226 
3 247 246 237 
3 247 237 236 
3 241 252 255 
3 241 255 242 
3 242 255 232 
3 242 232 225 
3 21 128 131 
3 21 131 22 
3 27 26 133 
3 27 133 132 
3 31 30 137 
3 31 137 136 
3 26 31 136 
3 26 136 133 
3 53 160 163 
3 53 163 54 
3 167 166 57 
3 167 57 56 
3 171 170 61 
3 171 61 60 
3 166 171 60 
3 166 60 57 
3 87 86 193 
3 87 193 192 
3 89 196 199 
3 89 199 90 
3 95 94 201 
3 95 201 200 
3 86 95 200 
3 86 200 193 
3 227 226 117 
3 227 117 116 
3 121 228 231 
3 121 231 122 
3 235 234 125 
3 235 125 124 
3 226 235 124 
3 226 124 117 
3 15 14 65 
3 15 65 64 
3 17 68 71 
3 17 71 18 
3 29 84 87 
3 29 87 30 
3 18 71 84 
3 18 84 29 
3 137 192 195 
3 137 195 138 
3 207 206 153 
3 207 153 152 
3 157 208 211 
3 157 211 158 
3 138 195 208 
3 138 208 157 
3 47 46 97 
3 47 97 96 
3 49 100 103 
3 49 103 50 
3 61 116 119 
3 61 119 62 
3 62 119 100 
3 62 100 49 
3 169 224 227 
3 169 227 170 
3 239 238 185 
3 239 185 184 
3 189 240 243 
3 189 243 190 
3 190 243 224 
3 190 224 169 
3 1 32 35 
3 1 35 2 
3 7 6 37 
3 7 37 36 
3 13 44 47 
3 13 47 14 
3 23 22 53 
3 23 53 52 
3 2 35 44 
3 2 44 13 
3 6 23 52 
3 6 52 37 
3 65 96 99 
3 65 99 66 
3 73 104 107 
3 73 107 74 
3 111 110 77 
3 111 77 76 
3 123 122 89 
3 123 89 88 
3 66 99 104 
3 66 104 73 
3 110 123 88 
3 110 88 77 
3 131 130 161 
3 131 161 160 
3 141 172 175 
3 141 175 142 
3 147 146 177 
3 147 177 176 
3 153 184 187 
3 153 187 154 
3 154 187 172 
3 154 172 141 
3 130 147 176 
3 130 176 161 
3 231 230 197 
3 231 197 196 
3 205 236 239 
3 205 239 206 
3 213 244 247 
3 213 247 214 
3 251 250 217 
3 251 217 216 
3 214 247 236 
3 214 236 205 
3 230 251 216 
3 230 216 197 
3 14 47 96 
3 14 96 65 
3 206 239 184 
3 206 184 153 
3 22 131 160 
3 22 160 53 
3 122 231 196 
3 122 196 89 
3 30 87 192 
3 30 192 137 
3 170 227 116 
3 170 116 61 
